<?xml version="1.0" encoding="UTF-8"?>
<svg id="Layer_2" data-name="Layer 2" xmlns="http://www.w3.org/2000/svg" viewBox="0 0 418.38 418.38">
  <defs>
    <style>
      .cls-1 {
        fill: none;
        stroke: #000;
        stroke-miterlimit: 10;
        stroke-width: .5px;
      }
    </style>
  </defs>
  <g id="Layer_1-2" data-name="Layer 1">
    <g>
      <g>
        <line class="cls-1" x1="249.74" y1="413.12" x2="222.75" y2="277.43"/>
        <line class="cls-1" x1="289.37" y1="401.11" x2="236.42" y2="273.29"/>
        <line class="cls-1" x1="325.89" y1="381.56" x2="249.04" y2="266.55"/>
        <line class="cls-1" x1="357.89" y1="355.29" x2="260.08" y2="257.48"/>
        <line class="cls-1" x1="384.18" y1="323.31" x2="269.15" y2="246.44"/>
        <line class="cls-1" x1="403.73" y1="286.79" x2="275.89" y2="233.84"/>
        <line class="cls-1" x1="414.78" y1="246.98" x2="280.03" y2="220.17"/>
        <g>
          <polyline class="cls-1" points="199.15 .84 199.15 209.55 199.15 418.23"/>
          <polyline class="cls-1" points="189.59 1.48 189.59 209.55 189.59 417.59"/>
          <polyline class="cls-1" points="180.03 2.56 180.03 209.55 180.03 416.51"/>
          <polyline class="cls-1" points="170.47 4.1 170.47 209.55 170.47 414.97"/>
          <polyline class="cls-1" points="160.91 6.1 160.91 209.55 160.91 412.97"/>
          <polyline class="cls-1" points="151.36 8.56 151.36 209.55 151.36 410.51"/>
          <polyline class="cls-1" points="141.8 11.54 141.8 209.55 141.8 407.53"/>
          <polyline class="cls-1" points="132.24 15.04 132.24 209.55 132.24 404.05"/>
          <polyline class="cls-1" points="122.68 19.08 122.68 209.55 122.68 399.37"/>
          <polyline class="cls-1" points="113.12 23.72 113.12 209.55 113.12 394.64"/>
          <polyline class="cls-1" points="103.58 28.96 103.58 209.55 103.58 389.66"/>
          <polyline class="cls-1" points="94.02 34.88 94.02 209.55 94.02 383.73"/>
          <polyline class="cls-1" points="84.46 41.55 84.46 209.55 84.46 376.83"/>
          <polyline class="cls-1" points="74.89 49.11 74.89 209.55 74.89 368.98"/>
          <polyline class="cls-1" points="65.33 57.59 65.33 209.55 65.33 360.62"/>
          <polyline class="cls-1" points="55.79 67.19 55.79 209.55 55.79 350.78"/>
          <polyline class="cls-1" points="46.23 78.21 46.23 209.55 46.23 339.74"/>
          <polyline class="cls-1" points="36.67 90.97 36.67 209.55 36.67 327.29"/>
          <polyline class="cls-1" points="27.11 106.8 27.11 209.55 27.11 311.72"/>
          <polyline class="cls-1" points="17.55 125.82 17.55 209.55 17.55 292.5"/>
          <polyline class="cls-1" points="7.99 152.5 7.99 209.55 7.99 265.82"/>
        </g>
      </g>
      <circle class="cls-1" cx="209.19" cy="209.19" r="208.94"/>
    </g>
  </g>
</svg>