<svg width="25" height="25" viewBox="0 0 25 25" fill="none" xmlns="http://www.w3.org/2000/svg">
<path d="M23.5549 3.65778C23.7566 3.46316 23.9175 3.23033 24.0282 2.97287C24.139 2.7154 24.1973 2.43846 24.1999 2.1582C24.2025 1.87794 24.1492 1.59998 24.0432 1.34053C23.9372 1.08108 23.7806 0.845339 23.5825 0.647065C23.3844 0.44879 23.1488 0.291951 22.8895 0.1857C22.6301 0.0794479 22.3522 0.0259122 22.0719 0.0282145C21.7917 0.0305169 21.5147 0.0886117 21.2571 0.19911C20.9995 0.309608 20.7666 0.470296 20.5718 0.671798L12.112 9.12879L3.65496 0.671798C3.46173 0.464421 3.2287 0.29809 2.96979 0.182726C2.71087 0.0673618 2.43137 0.0053289 2.14796 0.000328485C1.86456 -0.00467193 1.58304 0.0474627 1.32022 0.153621C1.0574 0.25978 0.81865 0.417788 0.618219 0.618219C0.417788 0.81865 0.25978 1.0574 0.153621 1.32022C0.0474627 1.58304 -0.00467193 1.86456 0.000328485 2.14797C0.0053289 2.43137 0.0673618 2.71087 0.182726 2.96979C0.29809 3.2287 0.464421 3.46173 0.671798 3.65496L9.12316 12.1148L0.66617 20.5718C0.293331 20.9719 0.0903536 21.5011 0.100002 22.0479C0.10965 22.5947 0.33117 23.1165 0.717892 23.5032C1.10461 23.8899 1.62634 24.1114 2.17317 24.1211C2.71999 24.1307 3.24921 23.9278 3.64933 23.5549L12.112 15.0979L20.5689 23.5577C20.9691 23.9306 21.4983 24.1335 22.0451 24.1239C22.5919 24.1143 23.1137 23.8927 23.5004 23.506C23.8871 23.1193 24.1086 22.5976 24.1183 22.0507C24.1279 21.5039 23.9249 20.9747 23.5521 20.5746L15.1007 12.1148L23.5549 3.65778Z" fill="#E8C183"/>
</svg>
