<svg width="44" height="44" viewBox="0 0 44 44" fill="none" xmlns="http://www.w3.org/2000/svg">
<rect x="0.5" y="0.5" width="43" height="43" rx="21.5" stroke="#E8C183"/>
<path d="M29.0667 30C27.2148 30 25.3852 29.5964 23.5778 28.7893C21.7704 27.9822 20.1259 26.8376 18.6444 25.3556C17.163 23.8735 16.0187 22.229 15.2116 20.4222C14.4044 18.6154 14.0006 16.7858 14 14.9333C14 14.6667 14.0889 14.4444 14.2667 14.2667C14.4444 14.0889 14.6667 14 14.9333 14H18.5333C18.7407 14 18.9259 14.0705 19.0889 14.2116C19.2519 14.3526 19.3481 14.5191 19.3778 14.7111L19.9556 17.8222C19.9852 18.0593 19.9778 18.2593 19.9333 18.4222C19.8889 18.5852 19.8074 18.7259 19.6889 18.8444L17.5333 21.0222C17.8296 21.5704 18.1813 22.0999 18.5884 22.6107C18.9956 23.1215 19.4439 23.6142 19.9333 24.0889C20.3926 24.5481 20.8741 24.9742 21.3778 25.3671C21.8815 25.76 22.4148 26.1191 22.9778 26.4444L25.0667 24.3556C25.2 24.2222 25.3742 24.1224 25.5893 24.056C25.8044 23.9896 26.0154 23.971 26.2222 24L29.2889 24.6222C29.4963 24.6815 29.6667 24.789 29.8 24.9449C29.9333 25.1007 30 25.2747 30 25.4667V29.0667C30 29.3333 29.9111 29.5556 29.7333 29.7333C29.5556 29.9111 29.3333 30 29.0667 30Z" fill="url(#paint0_linear_1023_14123)"/>
<defs>
<linearGradient id="paint0_linear_1023_14123" x1="14.8889" y1="31.5556" x2="27.1111" y2="18" gradientUnits="userSpaceOnUse">
<stop stop-color="#3D372E"/>
<stop offset="1" stop-color="#E8C183"/>
</linearGradient>
</defs>
</svg>
